<svg width="43" height="14" viewBox="0 0 43 14" fill="none" xmlns="http://www.w3.org/2000/svg">
<path d="M42.1273 10.6019V13.3848C41.7177 13.4089 41.3021 13.4209 40.8805 13.4209C39.736 13.4209 38.8566 13.1499 38.2422 12.6078C37.6278 12.0536 37.2423 11.2223 37.0856 10.114C36.9411 9.45142 36.7905 9.06592 36.6339 8.95749C36.4893 8.83702 36.0195 8.76474 35.2244 8.74065H32.4234V13.2764H28.8816V0.626953H36.9049C38.5554 0.626953 39.8203 0.970295 40.6998 1.65698C41.5792 2.34366 42.0189 3.36766 42.0189 4.72898C42.0189 6.35533 41.2419 7.43354 39.6878 7.96361V8.05397C40.1456 8.36719 40.4167 8.79486 40.501 9.33698C40.6215 10.1803 41.1636 10.6019 42.1273 10.6019ZM32.4234 3.40982V5.99392H36.9049C37.3989 5.99392 37.7844 5.88549 38.0615 5.66865C38.3385 5.43975 38.4771 5.12051 38.4771 4.71091C38.4771 4.30131 38.3385 3.98206 38.0615 3.75317C37.7844 3.52427 37.3989 3.40982 36.9049 3.40982H32.4234Z" fill="white"/>
<path d="M26.8986 9.80681C26.8986 10.9874 26.5252 11.8608 25.7783 12.427C25.0434 12.9933 23.911 13.2764 22.381 13.2764H14.3757V0.626953H22.381C25.3446 0.626953 26.8264 1.72926 26.8264 3.93387C26.8264 5.34338 26.1578 6.2951 24.8205 6.78902V6.86131C26.2059 7.37933 26.8986 8.36117 26.8986 9.80681ZM22.0196 3.44597H17.9176V5.61444H21.857C22.2907 5.61444 22.634 5.51806 22.887 5.32531C23.14 5.13255 23.2665 4.87354 23.2665 4.54827C23.2665 3.8134 22.8508 3.44597 22.0196 3.44597ZM23.3568 9.37312C23.3568 8.96352 23.2183 8.64427 22.9412 8.41538C22.6762 8.18648 22.3147 8.07204 21.857 8.07204H17.8995V10.4754H22.0196C22.9111 10.4754 23.3568 10.108 23.3568 9.37312Z" fill="white"/>
<path d="M7.89032 8.74068C7.02293 9.09005 6.36637 9.39123 5.92063 9.64421C5.47488 9.8972 5.12552 10.1803 4.87253 10.4935H12.0104V13.2764H0.770508V12.138C0.830743 11.126 1.11385 10.2827 1.61983 9.60807C2.1499 8.90934 2.75225 8.36723 3.42688 7.98172C4.13766 7.57212 5.01107 7.13843 6.04712 6.68064C6.70971 6.39151 7.22773 6.15057 7.60119 5.95781C8.45653 5.52412 8.8842 5.02417 8.8842 4.45796C8.8842 4.15678 8.69145 3.92186 8.30594 3.7532C7.93248 3.5725 7.42048 3.48214 6.76994 3.48214C6.05917 3.48214 5.505 3.61466 5.10745 3.8797C4.7099 4.13269 4.51112 4.4941 4.51112 4.96393H0.951214C0.951214 3.54238 1.46924 2.44007 2.50528 1.65702C3.55338 0.861909 5.01107 0.464355 6.87837 0.464355C8.6011 0.464355 9.95037 0.807697 10.9262 1.49438C11.914 2.16901 12.408 3.10266 12.408 4.29532C12.408 5.09043 12.1971 5.77108 11.7755 6.3373C11.39 6.86737 10.878 7.31311 10.2395 7.67452C9.63714 7.99979 8.85408 8.35518 7.89032 8.74068Z" fill="white"/>
</svg>
