<svg width="17" height="18" viewBox="0 0 17 18" fill="none" xmlns="http://www.w3.org/2000/svg">
<path d="M8.12109 0.5C12.7558 0.500115 16.5 4.31285 16.5 9C16.5 13.6871 12.7558 17.4999 8.12109 17.5C4.77365 17.5 1.88921 15.5096 0.546875 12.6406C0.429884 12.3905 0.538021 12.0926 0.788086 11.9756C1.03819 11.8586 1.33609 11.9667 1.45312 12.2168C2.63993 14.7532 5.18252 16.5 8.12109 16.5C12.1892 16.4999 15.5 13.1493 15.5 9C15.5 4.85073 12.1892 1.50011 8.12109 1.5C5.18252 1.50003 2.63993 3.24678 1.45312 5.7832C1.33609 6.0333 1.03819 6.14142 0.788086 6.02441C0.538021 5.90737 0.429884 5.60947 0.546875 5.35938C1.88921 2.49037 4.77365 0.500031 8.12109 0.5Z" fill="#196973"/>
<path d="M6.29297 4.29297C6.6835 3.90248 7.31652 3.90246 7.70703 4.29297L11.707 8.29297C12.0975 8.68348 12.0975 9.31652 11.707 9.70703L7.70703 13.707C7.31652 14.0975 6.6835 14.0975 6.29297 13.707C5.90244 13.3165 5.90244 12.6835 6.29297 12.293L8.58594 10H1C0.447715 10 4.82823e-08 9.55228 0 9C-4.82823e-08 8.44772 0.447715 8 1 8H8.58594L6.29297 5.70703C5.90244 5.31651 5.90244 4.68349 6.29297 4.29297Z" fill="#196973"/>
</svg>
