<svg width="155" height="39" viewBox="0 0 155 39" fill="none" xmlns="http://www.w3.org/2000/svg">
<path d="M65.2718 19.7383H65.4212L70.5198 8.79587H74.9925L67.5384 24.2705C66.8229 25.7014 66.1371 26.8644 65.4515 27.6992C64.7359 28.5639 63.9597 29.1602 63.095 29.5478C62.2304 29.9652 61.2168 30.1748 60.054 30.1748C59.6367 30.1748 59.2487 30.144 58.8909 30.1142C58.5333 30.0844 58.2051 29.9952 57.8773 29.8759V26.2685C58.5034 26.4772 59.13 26.5664 59.7562 26.5664C60.263 26.5664 60.7104 26.507 61.098 26.3281C61.4855 26.1492 61.8726 25.9401 62.2005 25.6123C62.5285 25.2843 62.8267 24.8667 63.095 24.33L63.2698 23.9726L54.598 8.79587H59.3089L65.2718 19.7383Z" fill="black"/>
<path d="M144.912 19.7383H145.061L150.159 8.79587H154.632L147.178 24.2705C146.492 25.7015 145.777 26.8643 145.091 27.6992C144.405 28.5639 143.6 29.1602 142.765 29.5478C141.87 29.9652 140.856 30.1748 139.694 30.1748C139.277 30.1748 138.889 30.144 138.532 30.1142C138.174 30.0844 137.846 29.9952 137.518 29.8759V26.2685C138.144 26.4771 138.77 26.5664 139.396 26.5664C139.903 26.5664 140.35 26.507 140.738 26.3281C141.125 26.1492 141.513 25.9403 141.841 25.6123C142.169 25.2843 142.467 24.8667 142.736 24.33L142.91 23.9736L134.238 8.79587H138.949L144.912 19.7383Z" fill="black"/>
<path d="M39.1829 18.7607L47.9193 8.82614H53.0179L44.015 18.9756L53.7034 29.8164H48.2464L39.1829 19.6367V29.7871L34.8294 29.8164V8.79587H39.1829V18.7607Z" fill="black"/>
<path fill-rule="evenodd" clip-rule="evenodd" d="M93.1507 12.4033H81.4622V16.5781H86.7698C88.6182 16.5781 90.1387 16.8165 91.3909 17.3232C92.6432 17.8301 93.5675 18.5761 94.1937 19.5302C94.8197 20.5141 95.1477 21.7062 95.1478 23.167C95.1478 25.3136 94.4327 26.9539 93.0316 28.0869C91.6302 29.2199 89.5423 29.7568 86.7991 29.7568L77.1097 29.8164V8.79587H93.1507V12.4033ZM81.4622 26.209H86.472C87.7837 26.2089 88.7975 25.9697 89.4534 25.4629C90.1092 24.956 90.4671 24.2108 90.4671 23.1972C90.4671 22.1835 90.1387 21.4385 89.4827 20.9316C88.8268 20.4248 87.8135 20.1856 86.472 20.1855H81.4622V26.209Z" fill="black"/>
<path d="M114.768 12.5527H103.229V29.7871L98.8753 29.8164V8.79587H114.768V12.5527Z" fill="black"/>
<path fill-rule="evenodd" clip-rule="evenodd" d="M135.46 29.8164H130.838L129.308 25.9101H119.009L117.481 29.7871L112.949 29.8164L121.476 8.82614H126.933L135.46 29.8164ZM120.432 22.3027H127.894L124.249 13H124.1L120.432 22.3027Z" fill="black"/>
<path d="M0.0634155 29.0115V34.9748C2.95562 34.9748 7.78589 35.6904 10.0221 39V32.0229C7.15975 29.9358 3.6414 29.0711 0.0634155 29.0115Z" fill="url(#paint0_radial_2_165)"/>
<path d="M10.0222 32.0229V39C12.7355 35.8693 16.2538 34.9748 20.1001 34.9748V29.0115C16.5222 29.0711 12.8845 29.9358 10.0222 32.0229Z" fill="url(#paint1_radial_2_165)"/>
<path d="M10.0222 0L2.80656 7.18578C-0.592524 10.5849 -0.920506 15.9518 1.91206 19.7087C1.67353 17.6812 2.3295 15.6835 3.73087 14.1927L3.9694 13.9541L13.9579 3.93578L10.0222 0Z" fill="url(#paint2_radial_2_165)"/>
<path d="M17.2675 7.24542L15.0014 4.97937L5.01291 14.9977C2.80649 17.2041 2.80649 20.7523 5.01291 22.9289L6.95098 24.867C6.65282 22.75 7.3386 20.5734 8.88906 19.0528L8.97851 18.9633L18.7583 9.1835C18.3409 8.49772 17.8638 7.84176 17.2675 7.24542Z" fill="url(#paint3_radial_2_165)"/>
<path d="M10.0221 20.0069C7.8157 22.2133 7.8157 25.7615 10.0221 27.9381L17.2377 20.7225C19.9808 17.9794 20.6964 13.984 19.4441 10.5849L10.0221 20.0069Z" fill="url(#paint4_radial_2_165)"/>
<defs>
<radialGradient id="paint0_radial_2_165" cx="0" cy="0" r="1" gradientUnits="userSpaceOnUse" gradientTransform="translate(13.3624 24.6424) scale(33.5944)">
<stop stop-color="#EBFF00"/>
<stop offset="1" stop-color="#008900"/>
</radialGradient>
<radialGradient id="paint1_radial_2_165" cx="0" cy="0" r="1" gradientUnits="userSpaceOnUse" gradientTransform="translate(24.4445 28.376) scale(29.1069)">
<stop stop-color="#EBFF00"/>
<stop offset="1" stop-color="#008900"/>
</radialGradient>
<radialGradient id="paint2_radial_2_165" cx="0" cy="0" r="1" gradientUnits="userSpaceOnUse" gradientTransform="translate(10.1526 -2.16635) scale(27.307)">
<stop stop-color="#EBFF00"/>
<stop offset="1" stop-color="#008900"/>
</radialGradient>
<radialGradient id="paint3_radial_2_165" cx="0" cy="0" r="1" gradientUnits="userSpaceOnUse" gradientTransform="translate(17.4378 0.642468) scale(29.9867)">
<stop stop-color="#EBFF00"/>
<stop offset="1" stop-color="#008900"/>
</radialGradient>
<radialGradient id="paint4_radial_2_165" cx="0" cy="0" r="1" gradientUnits="userSpaceOnUse" gradientTransform="translate(29.1998 19.6018) scale(27.3909 27.3909)">
<stop stop-color="#EBFF00"/>
<stop offset="1" stop-color="#008900"/>
</radialGradient>
</defs>
</svg>
