<svg width="27" height="22" viewBox="0 0 27 22" fill="none" xmlns="http://www.w3.org/2000/svg">
<path d="M25.1847 0.152598C25.7324 -0.0932547 26.2064 -0.0420351 26.6067 0.306257C27.0069 0.634061 27.1017 1.20772 26.891 2.02723L22.8465 20.6813C22.699 21.3369 22.4252 21.7467 22.0249 21.9106C21.6457 22.0745 21.1612 22.013 20.5714 21.7262L14.3781 17.2701L11.4079 20.0667C11.2394 20.2306 11.0603 20.374 10.8707 20.4969C10.7022 20.6199 10.4705 20.6813 10.1756 20.6813L10.5864 14.535L22.0881 4.4243C22.3409 4.21942 22.3514 4.076 22.1197 3.99405C21.9091 3.9121 21.6352 3.97357 21.2982 4.17844L7.11056 12.8755L0.980502 11.0316C0.306407 10.8267 -0.020108 10.5399 0.000957522 10.1711C0.0430885 9.78185 0.464398 9.43355 1.26489 9.12624L25.1847 0.152598Z" fill="#F5F5F5"/>
</svg>
