<svg width="20" height="19" viewBox="0 0 20 19" fill="none" xmlns="http://www.w3.org/2000/svg">
<path d="M7.5 0C7.77614 -1.20706e-08 8 0.223858 8 0.5V18.5C8 18.7761 7.77614 19 7.5 19C7.22386 19 7 18.7761 7 18.5V0.5C7 0.223858 7.22386 1.20706e-08 7.5 0Z" fill="#196973"/>
<path fill-rule="evenodd" clip-rule="evenodd" d="M3.58594 13.5C3.8511 13.5 4.10547 13.6055 4.29297 13.793L5.29297 14.793C5.68339 15.1835 5.68339 15.8165 5.29297 16.207L4.29297 17.207C4.10547 17.3945 3.8511 17.5 3.58594 17.5H1C0.447715 17.5 0 17.0523 0 16.5V14.5C0 13.9477 0.447715 13.5 1 13.5H3.58594ZM2 14.5C1.44772 14.5 1 14.9477 1 15.5C1 16.0523 1.44772 16.5 2 16.5C2.55228 16.5 3 16.0523 3 15.5C3 14.9477 2.55228 14.5 2 14.5Z" fill="#196973"/>
<path d="M19 14.5C19.5523 14.5 20 14.9477 20 15.5C20 16.0523 19.5523 16.5 19 16.5H11C10.4477 16.5 10 16.0523 10 15.5C10 14.9477 10.4477 14.5 11 14.5H19Z" fill="#196973"/>
<path fill-rule="evenodd" clip-rule="evenodd" d="M3.58594 7.5C3.8511 7.50004 4.10547 7.60547 4.29297 7.79297L5.29297 8.79297C5.68339 9.18347 5.68339 9.81653 5.29297 10.207L4.29297 11.207C4.10547 11.3945 3.8511 11.5 3.58594 11.5H1C0.447715 11.5 0 11.0523 0 10.5V8.5C0 7.94772 0.447715 7.5 1 7.5H3.58594ZM2 8.5C1.44772 8.5 1 8.94772 1 9.5C1 10.0523 1.44772 10.5 2 10.5C2.55228 10.5 3 10.0523 3 9.5C3 8.94772 2.55228 8.5 2 8.5Z" fill="#196973"/>
<path d="M19 8.5C19.5523 8.5 20 8.94772 20 9.5C20 10.0523 19.5523 10.5 19 10.5H11C10.4477 10.5 10 10.0523 10 9.5C10 8.94772 10.4477 8.5 11 8.5H19Z" fill="#196973"/>
<path fill-rule="evenodd" clip-rule="evenodd" d="M3.58594 1.5C3.8511 1.50004 4.10547 1.60547 4.29297 1.79297L5.29297 2.79297C5.68339 3.18347 5.68339 3.81653 5.29297 4.20703L4.29297 5.20703C4.10547 5.39453 3.8511 5.49996 3.58594 5.5H1C0.447715 5.5 0 5.05228 0 4.5V2.5C0 1.94772 0.447715 1.5 1 1.5H3.58594ZM2 2.5C1.44772 2.5 1 2.94772 1 3.5C1 4.05228 1.44772 4.5 2 4.5C2.55228 4.5 3 4.05228 3 3.5C3 2.94772 2.55228 2.5 2 2.5Z" fill="#196973"/>
<path d="M19 2.5C19.5523 2.5 20 2.94772 20 3.5C20 4.05228 19.5523 4.5 19 4.5H11C10.4477 4.5 10 4.05228 10 3.5C10 2.94772 10.4477 2.5 11 2.5H19Z" fill="#196973"/>
</svg>
